<?xml version="1.0" standalone="no"?>
<!DOCTYPE svg PUBLIC "-//W3C//DTD SVG 20010904//EN"
 "http://www.w3.org/TR/2001/REC-SVG-20010904/DTD/svg10.dtd">
<svg version="1.0" xmlns="http://www.w3.org/2000/svg"
 width="512.000000pt" height="512.000000pt" viewBox="0 0 512.000000 512.000000"
 preserveAspectRatio="xMidYMid meet">
<metadata>
Created by potrace 1.15, written by Peter Selinger 2001-2017
</metadata>
<g transform="translate(0.000000,512.000000) scale(0.100000,-0.100000)"
fill="#D5FFF9" stroke="none">
<path d="M259 4861 l-259 -259 0 -108 0 -108 76 74 c97 94 542 540 609 609
l49 51 -108 0 -108 0 -259 -259z"/>
<path d="M709 4411 l-709 -708 0 -109 0 -108 76 74 c42 41 222 220 400 398
299 297 376 370 310 291 -46 -54 -97 -151 -129 -244 -31 -90 -31 -91 -35 -336
l-4 -247 -309 -310 -309 -310 0 -108 0 -108 76 74 c42 41 182 180 310 308
l234 232 0 -338 0 -338 -310 -311 -310 -311 0 -108 0 -108 76 74 c42 41 182
180 310 308 l234 232 0 -338 0 -338 -310 -311 -310 -311 0 -108 0 -108 76 74
c42 41 182 180 310 308 l234 232 0 -80 c0 -141 44 -297 114 -409 19 -29 24
-46 17 -54 -5 -7 -177 -179 -380 -384 l-371 -372 0 -51 0 -50 58 0 59 0 372
370 c205 204 375 370 379 370 4 0 34 -21 67 -46 96 -72 237 -130 366 -149 l35
-5 -263 -264 c-145 -145 -263 -266 -263 -270 0 -3 46 -6 103 -6 l103 0 273
270 273 270 337 0 338 0 -264 -264 c-145 -145 -263 -266 -263 -270 0 -3 46 -6
103 -6 l103 0 273 270 273 270 337 0 338 0 -264 -264 c-145 -145 -263 -266
-263 -270 0 -3 46 -6 103 -6 l103 0 272 269 272 269 262 4 c286 5 323 11 447
69 78 36 105 67 -264 -303 -162 -163 -295 -298 -295 -302 0 -3 47 -6 104 -6
l105 0 700 701 701 700 0 105 c0 57 -3 104 -6 104 -3 0 -157 -151 -342 -335
-185 -184 -337 -335 -338 -335 -1 0 13 35 32 78 50 116 64 219 64 473 l0 217
295 298 295 298 0 103 c0 57 -3 103 -6 103 -3 0 -128 -122 -277 -271 -150
-149 -280 -278 -290 -286 -16 -15 -17 1 -17 320 l0 335 295 298 295 298 0 103
c0 57 -3 103 -6 103 -3 0 -128 -122 -277 -271 -150 -149 -280 -278 -289 -286
-17 -15 -18 1 -18 320 l0 335 295 298 295 298 0 103 c0 57 -3 103 -6 103 -3 0
-135 -129 -292 -286 -282 -280 -287 -285 -290 -252 -15 187 -53 299 -151 454
-13 19 10 45 363 399 l376 379 0 58 0 58 -51 0 -50 0 -381 -379 -380 -379 -70
49 c-95 65 -198 106 -317 126 l-98 16 231 232 c127 128 253 256 281 284 l49
51 -108 0 -107 0 -287 -285 -286 -285 -338 0 -338 0 232 234 c128 128 255 257
283 285 l49 51 -108 0 -107 0 -287 -285 -286 -285 -338 0 -338 0 232 234 c128
128 255 257 283 285 l49 51 -108 0 -107 0 -286 -284 -285 -284 -241 -5 c-210
-4 -252 -7 -315 -26 -88 -26 -192 -77 -255 -125 -26 -20 -47 -34 -47 -31 0 3
145 151 323 329 177 178 344 347 372 375 l49 51 -108 0 -109 0 -708 -709z
m821 -74 c0 -6 -693 -697 -698 -697 -3 0 -2 55 1 123 5 129 23 200 72 282 82
141 225 247 378 280 54 12 247 21 247 12z m900 0 c0 -2 -359 -363 -797 -801
l-798 -798 -3 336 -2 336 462 464 463 464 338 1 c185 1 337 -1 337 -2z m900 0
c0 -2 -147 -151 -326 -330 l-326 -326 -25 29 c-32 39 -85 49 -128 25 -46 -24
-55 -52 -55 -164 l0 -98 -412 -411 -411 -412 -100 0 c-108 0 -146 -13 -166
-57 -23 -50 -5 -114 38 -137 20 -11 3 -31 -281 -315 l-303 -303 -3 336 -2 336
912 914 913 914 338 1 c185 1 337 -1 337 -2z m580 -24 c84 -31 190 -89 190
-105 0 -5 -1381 -1388 -1407 -1410 -10 -8 -13 56 -13 326 l0 336 438 440 437
440 150 -4 c118 -3 162 -8 205 -23z m346 -296 c48 -102 64 -187 64 -353 l0
-141 -437 -436 -436 -437 -339 0 -338 0 718 719 c394 396 721 720 725 720 4 1
24 -32 43 -72z m64 -1055 l0 -339 -937 -936 -936 -937 -334 0 c-183 0 -333 2
-333 5 0 3 155 160 345 350 190 190 345 339 345 331 0 -29 24 -68 51 -82 48
-24 87 -18 125 20 l34 34 0 126 0 126 390 390 390 390 126 0 126 0 35 35 c32
32 35 40 30 76 -6 47 -38 85 -78 94 -26 6 -14 20 294 330 177 178 323 324 325
324 1 1 2 -151 2 -337z m-1850 -12 l0 -300 -300 0 -300 0 298 299 c163 165
298 300 300 300 1 1 2 -134 2 -299z m-155 -530 c-10 -11 -329 -331 -709 -711
l-691 -691 -32 69 c-43 92 -53 160 -53 357 l0 166 415 415 415 415 337 0 c334
0 336 0 318 -20z m900 0 c-25 -28 -506 -509 -522 -522 -11 -8 -13 40 -13 266
l0 276 277 0 c275 0 276 0 258 -20z m1105 -358 l0 -339 -487 -486 -486 -487
-334 0 c-273 0 -333 2 -326 13 7 11 1624 1634 1631 1636 1 1 2 -151 2 -337z
m-1850 -50 l0 -338 -462 -462 -461 -462 -97 0 c-53 0 -123 5 -156 11 -65 11
-203 75 -247 114 l-28 25 723 724 c398 398 724 725 726 725 1 1 2 -151 2 -337z
m1848 -667 c-7 -169 -44 -277 -133 -384 -126 -151 -280 -215 -500 -209 l-110
3 370 370 c230 230 371 365 374 356 2 -9 1 -69 -1 -136z"/>
<path d="M4759 362 c-192 -192 -349 -352 -349 -355 0 -4 46 -7 103 -7 l104 0
251 251 252 252 0 103 c0 57 -3 104 -6 104 -4 0 -163 -157 -355 -348z"/>
</g>
</svg>
