<?xml version="1.0" encoding="utf-8"?>
<!-- Generator: Adobe Illustrator 21.0.0, SVG Export Plug-In . SVG Version: 6.00 Build 0)  -->
<svg version="1.1" id="Capa_1" xmlns="http://www.w3.org/2000/svg" xmlns:xlink="http://www.w3.org/1999/xlink" x="0px" y="0px"
	 viewBox="0 0 48 48" style="enable-background:new 0 0 48 48;" xml:space="preserve">
<style type="text/css">
	.st0{fill: rgb(191,233,242);}
</style>
<path class="st0" d="M36.6,9.6h-1.8V6h-3.6v3.6H16.8V6h-3.6v3.6h-1.8c-2,0-3.6,1.6-3.6,3.6v25.1c0,2,1.6,3.6,3.6,3.6h25.1
	c2,0,3.6-1.6,3.6-3.6V13.2C40.2,11.2,38.5,9.6,36.6,9.6z M24,13.3c2.2,0,4,1.8,4,4s-1.8,4-4,4s-4-1.8-4-4S21.8,13.3,24,13.3z
	 M15.9,28c0-2.7,5.4-4.2,8.1-4.2s8.1,1.5,8.1,4.2v1.3H15.9V28z M12.4,33.3h12.9c0.3,0,0.6,0.3,0.6,0.6s-0.3,0.6-0.6,0.6H12.4
	c-0.3,0-0.6-0.3-0.6-0.6S12.1,33.3,12.4,33.3z M35.1,38.1H12.4c-0.3,0-0.6-0.3-0.6-0.6s0.3-0.6,0.6-0.6h22.7c0.3,0,0.6,0.3,0.6,0.6
	S35.5,38.1,35.1,38.1z M35.1,34.5h-6.4c-0.3,0-0.6-0.3-0.6-0.6s0.3-0.6,0.6-0.6h6.4c0.3,0,0.6,0.3,0.6,0.6S35.5,34.5,35.1,34.5z"/>
</svg>
