<?xml version="1.0" encoding="utf-8"?>
<!-- Generator: Adobe Illustrator 19.0.0, SVG Export Plug-In . SVG Version: 6.00 Build 0)  -->
<svg version="1.1" id="Layer_1" xmlns="http://www.w3.org/2000/svg" xmlns:xlink="http://www.w3.org/1999/xlink" x="0px" y="0px"
	 viewBox="0 0 96 96" style="enable-background:new 0 0 96 96;" xml:space="preserve">
<style type="text/css">
	.st0{fill:rgb(191,233,242)}
</style>
<g id="XMLID_1_">
	<path id="XMLID_5_" class="st0" d="M80.5,51.6v-7.4l-9-3l-2.1-5.1l4.1-8.5l-5.2-5.2l-8.4,4.2l-5.1-2.1l-3.2-8.9h-7.4l-2.9,9
		l-5.2,2.1l-8.5-4.1l-5.2,5.2l4.2,8.4l-2.1,5.1l-8.9,3.2v7.4l9,3l2.1,5.1l-4.1,8.5l5.2,5.2l8.4-4.2l5.1,2.1l3.2,8.9h7.4l2.9-9
		l5.2-2.1l8.5,4.1l5.2-5.2l-4.3-8.4l2.2-5.1L80.5,51.6L80.5,51.6z M48,62c-7.7,0-13.9-6.2-13.9-13.9S40.3,34.1,48,34.1
		S61.9,40.3,61.9,48S55.7,62,48,62z"/>
</g>
</svg>
